<svg width="840px" height="840px" version="1.1" xmlns="http://www.w3.org/2000/svg" xmlns:xlink="http://www.w3.org/1999/xlink" overflow="visible">
	<desc>Engraved by Verovio 2.0.0-dev-116fe31. For the purpose of reuse of symbols.
	dynamics: pp = #E52B, p=#E520, mp=#E52C, mf=#E52D, f=#E522, ff=#E52F
	bowings: down=#E610, up=#E612
	</desc>
	<defs>
		<symbol id="E003" viewBox="0 0 1000 1000" overflow="inherit">
			<path transform="scale(1,-1)" d="M0 0v117c0 6 2 7 8 7h101c191 14 317 146 327 157c5 7 16 14 25 14c5 -2 8 -6 8 -14c0 -3 0 -6 -1 -10c-40 -167 -183 -241 -343 -271h-125z"/>
		</symbol>
		<symbol id="E004" viewBox="0 0 1000 1000" overflow="inherit">
			<path transform="scale(1,-1)" d="M0 -117v117h125c160 -30 303 -104 343 -271c1 -4 1 -7 1 -10c0 -8 -3 -12 -8 -14c-9 0 -20 7 -25 14c-10 11 -136 143 -327 157h-101c-6 0 -8 1 -8 7z"/>
		</symbol>
		<symbol id="E050" viewBox="0 0 1000 1000" overflow="inherit">
			<path transform="scale(1,-1)" d="M470 943c-61 0 -133 -96 -133 -252c0 -32 2 -66 6 -92c2 -13 6 -14 13 -8c23 20 47 43 63 59c78 78 111 142 111 211c0 55 -27 82 -60 82zM430 103l49 -285c2 -12 4 -12 16 -6c56 28 94 79 94 142c0 88 -67 156 -148 163c-12 1 -13 -2 -11 -14zM361 262l-21 128 c-2 11 -4 12 -14 4c-47 -38 -93 -75 -153 -142c-83 -94 -93 -173 -93 -232c0 -139 113 -236 288 -236c20 0 40 2 56 5c15 3 16 3 14 14l-50 298c-2 11 -4 12 -20 8c-61 -17 -100 -60 -100 -117c0 -46 30 -89 72 -107c7 -3 15 -6 15 -13c0 -6 -4 -11 -12 -11 c-7 0 -19 3 -27 6c-68 23 -115 87 -115 177c0 85 57 164 145 194c18 6 18 5 15 24zM376 415l25 -145c3 -18 3 -18 29 -18c147 0 241 -113 241 -241c0 -113 -67 -198 -168 -238c-14 -6 -15 -5 -13 -17c11 -62 29 -157 29 -214c0 -170 -130 -200 -197 -200 c-151 0 -190 98 -190 163c0 62 40 115 107 115c61 0 96 -47 96 -102c0 -58 -36 -85 -67 -94c-23 -7 -32 -10 -32 -17c0 -13 26 -29 80 -29c59 0 159 18 159 166c0 47 -15 134 -27 201c-2 12 -4 11 -15 9c-20 -4 -46 -6 -69 -6c-245 0 -364 165 -364 339 c0 107 43 200 112 286c52 64 121 125 185 178c12 10 11 12 9 24c-7 41 -14 106 -14 164c0 104 24 229 98 311c20 22 51 48 65 48c11 0 37 -28 52 -50c41 -60 65 -146 65 -233c0 -113 -50 -232 -134 -324c-19 -21 -40 -42 -56 -57c-6 -6 -8 -7 -6 -19z"/>
		</symbol>
		<symbol id="E083" viewBox="0 0 1000 1000" overflow="inherit">
			<path transform="scale(1,-1)" d="M213 248c42 -3 167 -30 167 -122c0 -23 -6 -46 -22 -64c-11 -13 -24 -20 -39 -27c-9 -5 -20 -6 -31 -9c-3 -1 -4 -5 -4 -9c0 -2 0 -3 1 -5c2 -4 5 -4 10 -5l33 -9l21 -12c10 -6 18 -13 24 -21c8 -9 15 -19 19 -29c6 -13 8 -27 9 -41v-7c0 -88 -102 -139 -201 -139h-9 c-98 2 -169 32 -171 110c0 22 5 46 22 61c12 13 31 23 48 26c4 1 7 1 11 1c27 0 56 -16 67 -41c4 -10 5 -21 5 -31c-1 -29 -23 -44 -23 -66v-5c1 -15 20 -15 28 -16c1 0 5 -1 9 -1c22 0 76 12 76 118c0 13 -9 91 -124 91c-8 0 -25 0 -25 12c0 11 14 16 24 17 c63 3 122 32 122 106v7c0 24 -8 77 -93 77c-9 0 -40 -8 -42 -25v-4c0 -14 15 -12 20 -14s30 -4 33 -41v-8c0 -33 -22 -65 -66 -65h-5c-62 4 -81 48 -81 81c0 53 86 110 172 110c5 0 10 -1 15 -1z"/>
		</symbol>
		<symbol id="E082" viewBox="0 0 1000 1000" overflow="inherit">
			<path transform="scale(1,-1)" d="M421 -91c-16 -155 -93 -159 -136 -159c-89 0 -104 54 -144 54c-59 0 -71 -61 -93 -61c-2 0 -5 0 -8 2c-11 7 -18 20 -18 31c0 2 1 4 1 6c17 63 56 112 111 147c49 30 77 54 113 102c22 29 34 64 34 102c0 29 -1 96 -90 96c-59 0 -77 -24 -79 -38c0 -20 69 -23 69 -83 c0 -25 -9 -88 -70 -88c-36 0 -67 24 -82 55c-6 15 -9 29 -9 43c0 27 11 52 28 73c24 28 59 49 94 56c26 6 60 7 87 7c22 0 100 -6 151 -49c26 -22 46 -56 46 -103c0 -44 -19 -73 -43 -92c-33 -27 -75 -35 -90 -39c-22 -6 -107 -36 -129 -72c11 4 24 6 37 6 c41 0 88 -16 108 -24c10 -5 17 -6 30 -11c7 -2 12 -3 17 -3c21 0 29 19 39 43c0 1 1 2 1 3c2 6 5 10 13 10c7 0 12 -2 12 -14z"/>
		</symbol>
		<symbol id="E0A4" viewBox="0 0 1000 1000" overflow="inherit">
			<path transform="scale(1,-1)" d="M97 -125c-54 0 -97 31 -97 83c0 86 88 167 198 167c57 0 97 -32 97 -83c0 -85 -109 -167 -198 -167z"/>
		</symbol>
		<symbol id="E610" viewBox="0 0 1000 1000" overflow="inherit">
			<path transform="scale(1,-1)" d="M26 318h260c14 0 26 -12 26 -26v-280c0 -7 -6 -12 -12 -12h-13c-7 0 -13 5 -13 12v164c0 11 -59 17 -118 17s-118 -6 -118 -17v-164c0 -7 -6 -12 -12 -12h-14c-6 0 -12 5 -12 12v280c0 14 12 26 26 26z"/>
		</symbol>
		<symbol id="E612" viewBox="0 0 1000 1000" overflow="inherit">
			<path transform="scale(1,-1)" d="M126 1c-10 0 -17 6 -19 14l-105 459c-1 2 -1 3 -1 5c0 7 6 14 14 16h4c8 0 15 -5 18 -13l88 -385l89 385c2 8 9 13 17 13h4c9 -2 14 -9 14 -17v-4l-106 -459c-2 -8 -9 -14 -17 -14z"/>
		</symbol>
		<symbol id="E262" viewBox="0 0 1000 1000" overflow="inherit">
			<path transform="scale(1,-1)" d="M168 -45c2 9 4 37 4 64s-2 52 -4 57c-2 4 -8 6 -15 6c-25 0 -71 -21 -73 -38c-2 -8 -3 -43 -3 -74c0 -24 1 -46 3 -50c1 -3 6 -5 12 -5c23 0 70 20 76 40zM237 118l-26 -10c-8 -3 -13 -22 -13 -29v-93c0 -12 7 -18 13 -18l26 10c2 1 3 1 5 1c4 0 7 -3 7 -8v-71 c0 -6 -5 -14 -12 -17c0 0 -21 -8 -28 -11s-11 -15 -11 -23v-142c0 -6 -6 -11 -17 -11c-7 0 -13 5 -13 11v125c0 6 -5 18 -13 18c-1 0 -3 -1 -4 -1l-61 -25c-5 -2 -10 -9 -10 -22v-139c0 -6 -7 -11 -17 -11c-7 0 -13 5 -13 11v123c0 5 -5 16 -12 16c-1 0 -2 0 -3 -1 c-9 -3 -23 -9 -23 -9c-1 0 -3 -1 -4 -1c-5 0 -8 3 -8 9v71c0 6 5 14 12 16c0 0 21 9 27 11c6 3 11 12 11 23v99c0 8 -6 18 -13 18c-1 0 -2 -1 -3 -1c-7 -4 -22 -10 -22 -10c-1 0 -3 -1 -4 -1c-5 0 -8 3 -8 9v71c0 6 5 14 12 16c0 0 20 8 26 11s12 13 12 27v135 c0 6 6 11 16 11c7 0 14 -5 14 -11v-120c0 -8 3 -20 12 -20c17 4 51 18 63 25c9 6 12 19 13 29v130c0 6 6 11 16 11c8 0 14 -5 14 -11v-122c0 -8 7 -13 14 -13c5 1 25 9 25 9c2 1 3 1 5 1c4 0 7 -3 7 -8v-71c0 -6 -5 -14 -12 -17z"/>
		</symbol>
		<symbol id="E52B" viewBox="0 0 1000 1000" overflow="inherit">
			<path transform="scale(1,-1)" d="M281 274c56 0 92 -31 92 -89c0 -95 -78 -195 -174 -195c-17 0 -30 2 -44 9c-16 8 -19 18 -24 18s-7 -7 -9 -12l-45 -112c-1 -3 -2 -6 -2 -7c0 -3 3 -3 9 -3h40c8 0 12 -4 12 -12c0 -9 -4 -13 -13 -13h-193c-8 0 -12 4 -12 12c0 9 4 13 13 13h31c10 0 12 2 15 10l123 305 c3 7 6 17 6 25c0 7 -3 12 -11 12c-18 0 -38 -26 -67 -76c-5 -9 -9 -15 -16 -15c-6 0 -11 4 -11 11c0 5 2 10 7 19c31 57 63 99 122 99c26 0 41 -9 48 -21c9 -17 6 -24 11 -24c4 0 7 8 21 20c18 16 40 26 71 26zM636 274c56 0 92 -31 92 -89c0 -95 -78 -195 -174 -195 c-17 0 -30 2 -44 9c-16 8 -19 18 -24 18s-7 -7 -9 -12l-45 -112c-1 -3 -2 -6 -2 -7c0 -3 3 -3 9 -3h40c8 0 12 -4 12 -12c0 -9 -4 -13 -13 -13h-193c-8 0 -12 4 -12 12c0 9 4 13 13 13h31c10 0 12 2 15 10l123 305c3 7 6 17 6 25c0 7 -3 12 -11 12c-15 0 -28 -17 -38 -30 c-2 -2 -4 -6 -4 -6c-5 -7 -9 -12 -16 -12c-6 0 -11 3 -11 10c0 5 2 10 8 19c22 31 48 57 96 57c26 0 41 -9 48 -21c9 -17 6 -24 11 -24c4 0 7 8 21 20c18 16 40 26 71 26zM254 237c-24 0 -50 -29 -64 -63l-20 -49c-11 -28 -19 -48 -19 -69s8 -32 25 -32 c48 0 101 127 101 176c0 22 -6 37 -23 37zM609 237c-24 0 -50 -29 -64 -63l-20 -49c-11 -28 -19 -48 -19 -69s8 -32 25 -32c48 0 101 127 101 176c0 22 -6 37 -23 37z"/>
		</symbol>
		<symbol id="E520" viewBox="0 0 1000 1000" overflow="inherit">
			<path transform="scale(1,-1)" d="M274 274c56 0 92 -31 92 -89c0 -95 -78 -195 -174 -195c-17 0 -30 2 -44 9c-16 8 -19 18 -24 18s-7 -7 -9 -12l-45 -112c-1 -3 -2 -6 -2 -7c0 -3 3 -3 9 -3h40c8 0 12 -4 12 -12c0 -9 -4 -13 -13 -13h-193c-8 0 -12 4 -12 12c0 9 4 13 13 13h31c10 0 12 2 15 10l123 305 c3 7 6 17 6 25c0 7 -3 12 -11 12c-18 0 -38 -26 -67 -76c-5 -9 -9 -15 -16 -15c-6 0 -11 4 -11 11c0 5 2 10 7 19c31 57 63 99 122 99c26 0 41 -9 48 -21c9 -17 6 -24 11 -24c4 0 7 8 21 20c18 16 40 26 71 26zM247 237c-24 0 -50 -29 -64 -63l-20 -49 c-11 -28 -19 -48 -19 -69s8 -32 25 -32c48 0 101 127 101 176c0 22 -6 37 -23 37z"/>
		</symbol>
		<symbol id="E52C" viewBox="0 0 1000 1000" overflow="inherit">
			<path transform="scale(1,-1)" d="M444 132l7 16c24 54 56 125 131 125c26 0 41 -9 48 -21c9 -17 6 -24 11 -24c4 0 7 8 21 20c18 16 40 26 71 26c56 0 92 -31 92 -89c0 -95 -78 -195 -174 -195c-17 0 -30 2 -44 9c-16 8 -19 18 -24 18s-7 -7 -9 -12l-45 -112c-1 -3 -2 -6 -2 -7c0 -3 3 -3 9 -3h40 c8 0 12 -4 12 -12c0 -9 -4 -13 -13 -13h-193c-8 0 -12 4 -12 12c0 9 4 13 13 13h31c10 0 12 2 15 10l123 305c3 7 6 17 6 25c0 7 -2 12 -10 12c-26 0 -52 -51 -82 -119c-31 -71 -71 -126 -134 -126c-29 0 -45 14 -45 40c0 42 62 145 62 180c0 8 -3 14 -15 14 c-22 0 -43 -21 -55 -50l-65 -162c-4 -10 -7 -12 -16 -12h-49c-8 0 -11 2 -11 6c0 3 1 6 3 11c62 155 63 155 63 156c6 14 10 25 10 37c0 8 -3 14 -15 14c-22 0 -43 -21 -55 -50l-65 -162c-4 -10 -7 -12 -16 -12h-49c-8 0 -11 2 -11 6c0 3 1 6 3 11l73 181c3 7 6 17 6 25 c0 7 -3 12 -11 12c-18 0 -38 -27 -68 -78c-5 -8 -8 -13 -15 -13c-6 0 -11 4 -11 11c0 5 2 10 7 19c31 56 62 99 115 99c19 0 33 -10 39 -23c6 -14 3 -21 8 -21c4 0 5 4 15 14c16 17 39 31 68 31c25 0 38 -11 44 -24s3 -21 8 -21c4 0 5 4 15 14c16 17 39 31 68 31 c41 0 54 -29 54 -54c0 -55 -58 -142 -58 -177c0 -6 2 -9 8 -9c20 0 45 37 73 98zM628 24c48 0 101 127 101 176c0 22 -6 37 -23 37c-24 0 -50 -29 -64 -63l-20 -49c-11 -28 -19 -48 -19 -69s8 -32 25 -32z"/>
		</symbol>
		<symbol id="E52D" viewBox="0 0 1000 1000" overflow="inherit">
			<path transform="scale(1,-1)" d="M367 274c41 0 54 -29 54 -54c0 -55 -58 -142 -58 -177c0 -6 2 -9 8 -9c13 0 32 24 51 54c5 8 8 13 15 13c5 0 9 -3 9 -9c0 -5 -3 -11 -9 -21c-32 -53 -67 -81 -105 -81c-29 0 -45 14 -45 40c0 42 62 145 62 180c0 8 -3 14 -15 14c-22 0 -43 -21 -55 -50l-65 -162 c-4 -10 -7 -12 -16 -12h-49c-8 0 -11 2 -11 6c0 3 1 6 3 11c62 155 63 155 63 156c6 14 10 25 10 37c0 8 -3 14 -15 14c-22 0 -43 -21 -55 -50l-65 -162c-4 -10 -7 -12 -16 -12h-49c-8 0 -11 2 -11 6c0 3 1 6 3 11l73 181c3 7 6 17 6 25c0 7 -3 12 -11 12 c-18 0 -38 -27 -68 -78c-5 -8 -8 -13 -15 -13c-6 0 -11 4 -11 11c0 5 2 10 7 19c31 56 62 99 115 99c19 0 33 -10 39 -23c6 -14 3 -21 8 -21c4 0 5 4 15 14c16 17 39 31 68 31c25 0 38 -11 44 -24s3 -21 8 -21c4 0 5 4 15 14c16 17 39 31 68 31zM470 251h58c14 0 15 0 20 15 c33 96 87 165 184 165c63 0 86 -30 86 -67s-23 -54 -49 -54c-25 0 -45 14 -45 42c0 18 8 32 21 38c11 5 16 4 16 10s-8 8 -16 8c-50 0 -72 -53 -92 -140c-1 -6 -2 -9 -2 -12c0 -5 3 -5 10 -5h60c10 0 15 -5 15 -15c0 -11 -5 -16 -16 -16h-65c-5 0 -13 -9 -13 -11 c0 -1 -1 -2 -1 -3c-24 -84 -46 -146 -75 -207c-55 -113 -102 -164 -178 -164c-42 0 -75 23 -75 67c0 31 22 55 52 55c27 0 45 -15 45 -41c0 -16 -8 -29 -20 -37c-15 -10 -24 -5 -24 -13c0 -5 5 -9 18 -9c40 0 58 32 86 130l63 219c1 5 2 8 2 10c0 4 -2 4 -8 4h-58 c-10 0 -15 5 -15 15c0 11 5 16 16 16z"/>
		</symbol>
		<symbol id="E522" viewBox="0 0 1000 1000" overflow="inherit">
			<path transform="scale(1,-1)" d="M16 264h58c14 0 15 0 20 15c33 96 87 165 184 165c63 0 86 -30 86 -67s-23 -54 -49 -54c-25 0 -45 14 -45 42c0 18 8 32 21 38c11 5 16 4 16 10s-8 8 -16 8c-50 0 -72 -53 -92 -140c-1 -6 -2 -9 -2 -12c0 -5 3 -5 10 -5h60c10 0 15 -5 15 -15c0 -11 -5 -16 -16 -16h-65 c-5 0 -13 -9 -13 -11c0 -1 -1 -2 -1 -3c-24 -84 -46 -146 -75 -207c-55 -113 -102 -164 -178 -164c-42 0 -75 23 -75 67c0 31 22 55 52 55c27 0 45 -15 45 -41c0 -16 -8 -29 -20 -37c-15 -10 -24 -5 -24 -13c0 -5 5 -9 18 -9c40 0 58 32 86 130l63 219c1 5 2 8 2 10 c0 4 -2 4 -8 4h-58c-10 0 -15 5 -15 15c0 11 5 16 16 16z"/>
		</symbol>
		<symbol id="E52F" viewBox="0 0 1000 1000" overflow="inherit">
			<path transform="scale(1,-1)" d="M213 264h107c14 0 15 0 20 15c33 96 87 165 184 165c63 0 86 -30 86 -67s-23 -54 -49 -54c-25 0 -45 14 -45 42c0 18 8 32 21 38c11 5 16 4 16 10s-8 8 -16 8c-50 0 -72 -53 -92 -140c-1 -6 -2 -9 -2 -12c0 -5 3 -5 10 -5h60c10 0 15 -5 15 -15c0 -11 -5 -16 -16 -16h-65 c-5 0 -13 -9 -13 -11c0 -1 -1 -2 -1 -3c-24 -84 -46 -146 -75 -207c-55 -113 -102 -164 -178 -164c-42 0 -72 23 -72 62c0 31 18 52 49 52c24 0 41 -15 41 -39c0 -16 -5 -27 -17 -35c-11 -7 -15 -9 -15 -13c0 -3 2 -5 10 -5c40 0 58 32 86 130l63 219c1 5 2 8 2 10 c0 4 -2 4 -8 4h-112c-5 0 -13 -9 -13 -11c0 -1 -1 -2 -1 -3c-24 -84 -46 -146 -75 -207c-55 -113 -102 -164 -178 -164c-42 0 -75 23 -75 67c0 31 22 55 52 55c27 0 45 -15 45 -41c0 -16 -8 -29 -20 -37c-15 -10 -24 -5 -24 -13c0 -5 5 -9 18 -9c40 0 58 32 86 130l63 219 c1 5 2 8 2 10c0 4 -2 4 -8 4h-58c-10 0 -15 5 -15 15c0 11 5 16 16 16h58c14 0 15 0 20 15c33 97 80 165 178 165c57 0 77 -29 77 -55c0 -33 -17 -51 -44 -51c-24 0 -42 12 -42 41c0 27 18 31 18 38c0 3 -3 4 -8 4c-39 0 -54 -53 -74 -140c-1 -6 -2 -9 -2 -12 c0 -5 3 -5 10 -5z"/>
		</symbol>
	</defs>
	<style type="text/css">g.page-margin{font-family:Times;} g.tempo{font-weight:bold;} g.dir, g.dynam{font-style:italic;} g.label{font-weight:normal;}g.slur{stroke:white; fill: white}</style>
	<svg class="definition-scale" viewBox="3500 6500 2400 1000">
		<g class="slur" id="slur-0000000513200250">
			<path d="M3620,6512 C4040,6136 5300,6136 5720,6512 C5300,6190 4040,6190 3620,6512" stroke-linecap="round" stroke-linejoin="round" stroke-width="10"></path>
		</g>
	</svg>
</svg>
